HIERARCHY
ROOT Hips
{
	OFFSET -3.958830 18.904000 13.208200
	CHANNELS 6 Xposition Yposition Zposition Zrotation Yrotation Xrotation 
	JOINT LHipJoint
	{
		OFFSET 0.000000 0.000000 0.000000
		CHANNELS 3 Zrotation Yrotation Xrotation
		JOINT LeftUpLeg
		{
			OFFSET 1.800000 -1.400000 0.085000
			CHANNELS 3 Zrotation Yrotation Xrotation
			JOINT LeftLeg
			{
				OFFSET 2.215000 -6.000000 0.000000
				CHANNELS 3 Zrotation Yrotation Xrotation
				JOINT LeftFoot
				{
					OFFSET 2.500000 -6.900000 0.000000
					CHANNELS 3 Zrotation Yrotation Xrotation
					JOINT LeftToeBase
					{
						OFFSET 0.200000 -0.500000 1.950000
						CHANNELS 3 Zrotation Yrotation Xrotation
						End Site
						{
							OFFSET 0.000000 0.000000 0.000000
						}
					}
				}
			}
		}
	}
	JOINT RHipJoint
	{
		OFFSET 0.000000 0.000000 0.000000
		CHANNELS 3 Zrotation Yrotation Xrotation
		JOINT RightUpLeg
		{
			OFFSET -1.800000 -1.400000 0.085000
			CHANNELS 3 Zrotation Yrotation Xrotation
			JOINT RightLeg
			{
				OFFSET -2.215000 -6.000000 0.000000
				CHANNELS 3 Zrotation Yrotation Xrotation
				JOINT RightFoot
				{
					OFFSET -2.500000 -6.900000 0.000000
					CHANNELS 3 Zrotation Yrotation Xrotation
					JOINT RightToeBase
					{
						OFFSET -0.200000 -0.500000 1.950000
						CHANNELS 3 Zrotation Yrotation Xrotation
						End Site
						{
							OFFSET 0.000000 0.000000 0.000000
						}
					}
				}
			}
		}
	}
	JOINT LowerBack
	{
		OFFSET 0.000000 0.000000 0.000000
		CHANNELS 3 Zrotation Yrotation Xrotation
		JOINT Spine
		{
			OFFSET -0.087000 1.940000 -0.288900
			CHANNELS 3 Zrotation Yrotation Xrotation
			JOINT Spine1
			{
				OFFSET 0.000000 1.950000 0.060000
				CHANNELS 3 Zrotation Yrotation Xrotation
				JOINT Neck
				{
					OFFSET 0.000000 0.000000 0.000000
					CHANNELS 3 Zrotation Yrotation Xrotation
					JOINT Neck1
					{
						OFFSET 0.000000 1.600000 0.340000
						CHANNELS 3 Zrotation Yrotation Xrotation
						JOINT Head
						{
							OFFSET 0.000000 1.667000 -0.240000
							CHANNELS 3 Zrotation Yrotation Xrotation
							End Site
							{
								OFFSET 0.000000 0.000000 0.000000
							}
						}
					}
				}
				JOINT LeftShoulder
				{
					OFFSET 0.000000 0.000000 0.000000
					CHANNELS 3 Zrotation Yrotation Xrotation
					JOINT LeftArm
					{
						OFFSET 2.700000 1.550000 -0.730000
						CHANNELS 3 Zrotation Yrotation Xrotation
						JOINT LeftForeArm
						{
							OFFSET 5.450000 0.000000 0.000000
							CHANNELS 3 Zrotation Yrotation Xrotation
							JOINT LeftHand
							{
								OFFSET 3.450000 0.000000 0.000000
								CHANNELS 3 Zrotation Yrotation Xrotation
								JOINT LeftHandIndex1
								{
									OFFSET 0.750000 0.000000 0.000000
									CHANNELS 3 Zrotation Yrotation Xrotation
									End Site
									{
										OFFSET 0.000000 0.000000 0.000000
									}
								}
							}
						}
					}
				}
				JOINT RightShoulder
				{
					OFFSET 0.000000 0.000000 0.000000
					CHANNELS 3 Zrotation Yrotation Xrotation
					JOINT RightArm
					{
						OFFSET -2.700000 1.550000 -0.730000
						CHANNELS 3 Zrotation Yrotation Xrotation
						JOINT RightForeArm
						{
							OFFSET -5.450000 0.000000 0.000000
							CHANNELS 3 Zrotation Yrotation Xrotation
							JOINT RightHand
							{
								OFFSET -3.450000 0.000000 0.000000
								CHANNELS 3 Zrotation Yrotation Xrotation
								JOINT RightHandIndex1
								{
									OFFSET -0.750000 0.000000 0.000000
									CHANNELS 3 Zrotation Yrotation Xrotation
									End Site
									{
										OFFSET 0.000000 0.000000 0.000000
									}
								}
							}
						}
					}
				}
			}
		}
	}
}
MOTION
Frames: 8
Frame Time: 0.016667
-0.473140 15.655150 -9.260630 -4.137936 -29.339638 -5.973411 -15.321632 10.790025 5.891613 21.742071 -3.129856 -32.605418 -42.729876 28.921465 37.252169 1.527273 12.950552 0.259932 0.180450 -0.087720 0.158570 18.382143 -9.256595 2.502667 -17.614625 8.385802 -10.454935 21.748564 -22.603738 51.958227 -1.818398 -10.642313 0.724306 0.007270 0.364160 0.229570 -3.919027 -1.522090 -9.051885 15.664219 -2.950752 30.143863 -10.139533 5.300153 8.285100 3.670015 -9.126564 -18.135836 -18.723179 8.959933 28.374109 -0.824710 4.434840 -13.493660 -10.991606 -15.642657 6.752527 -2.501438 -1.301702 -0.775045 16.333997 -2.130122 -1.302167 -4.109246 2.646409 0.562390 0.071170 0.029300 0.118870 5.265434 24.981359 14.211212 4.944158 4.423013 -1.842892 -11.791288 2.865937 -0.307921 2.539617 -0.997695 -0.272140 0.370010 0.188470 -0.125620 
-0.502410 15.682390 -9.250700 -3.034371 -32.365535 -6.974333 -15.347510 10.958057 5.843936 21.863754 -2.597536 -31.135465 -43.238099 29.209718 36.651445 1.536403 12.940214 0.243090 0.170570 -0.109520 0.167390 18.330281 -9.367797 2.391232 -18.160097 8.398459 -10.337015 19.227986 -21.346740 52.947698 -1.741678 -10.532881 0.723311 -0.004170 0.349030 0.265110 -3.796428 -1.608653 -9.007928 13.431706 -1.617802 30.052607 -9.336869 5.840102 9.595627 3.625348 -8.728523 -18.446837 -18.110299 10.099033 28.949092 -1.841950 6.267390 -12.097390 -10.518900 -16.286972 7.088485 -2.391493 -0.912295 -1.029013 16.988358 -3.998130 -1.523401 -4.114333 2.719580 0.546340 0.096690 0.023060 0.097320 4.909315 25.495391 14.372674 6.302972 4.425188 -2.108306 -13.035669 2.547644 -0.410977 2.548245 -1.078558 -0.258540 0.306870 0.199880 -0.145850 
-0.490530 15.727690 -9.199230 -3.299188 -36.607303 -6.253175 -15.367841 11.119978 5.870815 22.248800 -2.199041 -30.556633 -43.144481 29.396078 36.485714 1.547915 12.921792 0.253384 0.168750 -0.121400 0.184610 18.295842 -9.450288 2.272332 -17.913149 8.319028 -11.435864 16.068452 -19.547334 53.706045 -1.645388 -10.193239 0.825065 -0.023470 0.337640 0.257090 -3.748821 -1.751901 -8.972334 13.231835 -0.977203 29.670556 -9.117288 6.254098 7.805017 3.604441 -8.992900 -18.136684 -19.388992 11.714108 29.739929 -1.794180 7.768840 -11.968080 -12.011594 -15.936592 6.347258 -2.355031 -1.507405 -1.777216 19.046507 -8.252166 -2.107188 -4.022449 2.741548 0.576190 0.080040 0.041550 0.100820 6.453460 25.154081 14.327832 5.990447 3.873852 -2.074022 -12.526049 1.754955 -0.244358 2.578019 -1.039829 -0.266480 0.308900 0.187490 -0.157080 
-0.466340 15.810280 -9.180680 -3.338450 -40.931057 -6.640644 -15.338600 11.344470 5.851248 22.374969 -2.277504 -29.006337 -42.462944 28.958546 36.454369 1.549363 12.812055 0.283191 0.200260 -0.061540 0.199180 18.282302 -9.719462 2.045442 -17.239305 7.680961 -11.407366 11.741044 -16.655892 53.508663 -1.478053 -9.569316 1.011014 0.002080 0.322180 0.243920 -3.762735 -1.784554 -8.811218 12.913028 -1.095462 29.831400 -9.377901 6.476917 10.017621 3.717045 -9.293279 -19.913032 -20.815148 13.264532 29.239430 -1.504530 9.190800 -11.614410 -11.127860 -18.463303 7.238811 -2.291631 -3.203804 -1.763899 18.570561 -5.529011 -1.921887 -4.059414 2.750831 0.558780 0.073790 0.055300 0.116540 5.801606 27.617785 15.471832 5.794864 3.779494 -1.531529 -9.434593 -4.582915 0.181235 2.783207 -0.944835 -0.249880 0.302950 0.152010 -0.147830 
-0.443520 15.876570 -9.142710 -4.020769 -44.247116 -5.929650 -15.338382 11.468015 5.903722 22.674986 -3.153707 -28.510295 -41.544357 28.479033 37.134456 1.555763 12.797995 0.284509 0.237360 0.016060 0.223520 18.271892 -9.891660 1.794786 -16.817155 6.217016 -11.279398 8.804900 -14.692490 51.746521 -1.323253 -8.968391 1.194325 0.038840 0.319600 0.270040 -3.774270 -1.923502 -8.650748 12.711869 -1.626456 28.527404 -9.614832 5.710311 12.657979 3.692162 -8.898179 -20.516333 -20.534127 14.768727 27.876909 -2.671320 11.671680 -11.453620 -9.611490 -20.716740 7.556563 -2.079827 -7.666521 -1.687502 18.333449 1.839314 -1.407193 -4.255302 2.747862 0.506690 0.116660 0.066860 0.132680 4.253794 28.376562 15.838903 7.316697 3.281891 -1.202267 -8.687570 -5.342051 0.160356 2.802099 -0.987008 -0.215550 0.272950 0.112240 -0.138770 
-0.420140 15.981040 -9.087130 -4.953401 -47.769498 -5.125669 -15.332837 11.777803 5.960321 22.840318 -4.031656 -27.660937 -40.338133 27.500509 37.396258 1.528401 12.632981 0.283806 0.234790 0.013840 0.263590 18.229507 -10.026645 1.560684 -16.515186 4.568004 -10.113994 6.932386 -12.788125 47.427253 -1.146631 -7.979481 1.475869 -0.004960 0.234920 0.288220 -3.661472 -2.401029 -8.553170 12.555496 -2.622530 29.431498 -9.150248 4.516141 10.220127 3.717634 -9.199211 -20.845494 -23.341706 18.047066 28.424540 -3.447520 14.877510 -13.517280 -11.753337 -21.811854 7.418356 -1.304276 -8.869253 -2.257764 19.010760 -1.842278 -1.794480 -4.135525 2.787574 0.569860 0.050490 0.148810 0.094760 6.577402 28.801288 15.670398 7.030281 3.086209 -2.395985 -13.330584 -2.594363 0.041042 2.761397 -1.071439 -0.182250 0.230320 0.110800 -0.159880 
-0.390900 16.084750 -9.054250 -5.019553 -51.471935 -4.999413 -15.310765 11.979189 5.751775 21.606410 -4.785504 -26.297224 -37.118008 26.461755 38.770563 1.441841 12.569225 0.303225 0.207330 -0.004680 0.241910 18.212543 -10.232626 1.439038 -17.350023 3.278401 -9.779304 6.047189 -11.741046 43.836402 -0.960935 -7.434690 1.639732 0.011630 0.310810 0.336450 -3.719874 -2.458152 -8.305015 12.232792 -2.134926 28.046769 -8.663064 4.367517 13.731282 2.915764 -8.960926 -20.573498 -22.505038 19.193128 25.792562 -4.811340 16.976130 -12.375910 -9.042535 -22.729955 7.782129 -2.071347 -9.937812 -2.645027 18.789034 -9.442314 -2.693536 -4.125168 2.908863 0.497740 0.153480 0.098120 0.092800 5.029174 28.334121 15.596330 10.071487 2.344512 -2.299905 -13.313625 -4.995300 0.232343 2.780845 -1.154871 -0.190740 0.216060 0.140290 -0.157210 
-0.343550 16.215820 -9.007900 -7.099136 -57.558068 -3.224711 -15.363895 12.314888 5.670314 21.732608 -4.800932 -25.166563 -34.341948 25.856086 40.036449 1.423111 12.524316 0.315627 0.090280 -0.135850 0.176000 18.123992 -10.292880 1.340882 -16.479571 2.322062 -9.880302 4.363175 -9.972996 39.459287 -0.724812 -6.525770 1.969634 -0.076230 0.343950 0.326120 -3.542120 -2.892618 -8.186961 11.766265 -2.103315 28.499185 -8.399387 4.033906 13.636969 3.835648 -8.778999 -20.848972 -22.402355 20.487408 24.412327 -6.131840 19.226520 -11.191240 -8.580711 -23.155369 7.889468 -4.024860 -8.804486 -4.811459 19.584219 -21.472019 -4.377490 -3.995481 3.039816 0.484590 0.183460 0.058400 0.056160 2.895729 28.569376 15.980299 13.990967 -0.287970 -3.256503 -15.690779 6.343654 -0.735306 2.463338 -1.240454 -0.217410 0.193100 0.195570 -0.165000 
